<?xml version="1.0" encoding="utf-8"?>
<!-- Generator: Adobe Illustrator 27.0.0, SVG Export Plug-In . SVG Version: 6.00 Build 0)  -->
<svg version="1.1" id="Capa_1" xmlns="http://www.w3.org/2000/svg" xmlns:xlink="http://www.w3.org/1999/xlink" x="0px" y="0px"
	 viewBox="0 0 492 115.2" style="enable-background:new 0 0 492 115.2;" xml:space="preserve">
<style type="text/css">
	.st0{fill:url(#SVGID_1_);}
	.st1{fill:url(#SVGID_00000121250346743106307430000007258859457328268456_);}
	.st2{fill:url(#SVGID_00000016050849470573545180000001980847373541188008_);}
	.st3{fill:url(#SVGID_00000099632528863464680660000013661912936321210240_);}
	.st4{fill:url(#SVGID_00000052825096205538132730000013440124892121661871_);}
	.st5{fill:#FFFFFF;}
	.st6{fill:url(#SVGID_00000082346415681744224150000002809795512312096916_);}
	.st7{fill:url(#SVGID_00000026881282622072779010000009555774098932440462_);}
	.st8{fill:url(#SVGID_00000130648055786932723400000006678651788046642333_);}
	.st9{fill:url(#SVGID_00000142165848902917065150000012820465105155965837_);}
	.st10{fill:url(#SVGID_00000008851974977410871000000001843870137511589289_);}
	.st11{fill:url(#SVGID_00000085241194609827441530000017334296232636104849_);}
	.st12{fill:url(#SVGID_00000180351301551041878280000012058408983426834306_);}
	.st13{fill:url(#SVGID_00000168111461307285152840000004445393639115298225_);}
	.st14{fill:url(#SVGID_00000080184604747326135210000014288899600179858588_);}
	
		.st15{fill:none;stroke:url(#SVGID_00000034802730638315899540000014012589001550471586_);stroke-width:0.4891;stroke-miterlimit:10;}
	
		.st16{fill:none;stroke:url(#SVGID_00000109013335851080472640000016440584784840061860_);stroke-width:0.4891;stroke-miterlimit:10;}
	
		.st17{fill:none;stroke:url(#SVGID_00000153671296805154176800000014363855348670088071_);stroke-width:0.4891;stroke-miterlimit:10;}
	
		.st18{fill:none;stroke:url(#SVGID_00000101082556666029385380000001011887249686649234_);stroke-width:0.4891;stroke-miterlimit:10;}
	
		.st19{fill:none;stroke:url(#SVGID_00000035514122385924935180000000102626871963712188_);stroke-width:0.4891;stroke-miterlimit:10;}
	
		.st20{fill:none;stroke:url(#SVGID_00000168112436501776561810000000081553240363233922_);stroke-width:0.4891;stroke-miterlimit:10;}
	
		.st21{fill:none;stroke:url(#SVGID_00000145029259911962377850000015786476048478452381_);stroke-width:0.4891;stroke-miterlimit:10;}
	
		.st22{fill:none;stroke:url(#SVGID_00000152232950037764018320000003235064724061569409_);stroke-width:0.4891;stroke-miterlimit:10;}
	
		.st23{fill:none;stroke:url(#SVGID_00000175314231072373691000000004167438518373622933_);stroke-width:0.4891;stroke-miterlimit:10;}
	.st24{fill:url(#SVGID_00000146500449336563079610000012700539774987072671_);}
	.st25{fill:url(#SVGID_00000121970609681188507420000010805467238268598185_);}
	.st26{fill:url(#SVGID_00000137831432402184212940000007293324035334294949_);}
	.st27{fill:url(#SVGID_00000096054990726582032450000003345305702075542435_);}
	.st28{fill:url(#SVGID_00000149354083923998172720000000701265033154487205_);}
	.st29{fill:url(#SVGID_00000123411200593459535350000003305463201651878055_);}
	.st30{fill:url(#SVGID_00000109734177866369086970000018113237886630299056_);}
	.st31{fill:url(#SVGID_00000018225841158485195860000005641741892943701638_);}
	.st32{fill:url(#SVGID_00000142870681475285147940000001981431807848040368_);}
</style>
<g>
	<g>
		<path class="st5" d="M38.7,18.7c15.3,0,23,8.8,23,19.7c0,7.8-4.3,15.2-13.9,18.1l14.4,24.7H45L32,57.6h-3.6v23.6H13.2V18.7H38.7z
			 M37.8,31.3h-9.4v15.5h9.4c5.7,0,8.4-2.9,8.4-7.8C46.2,34.4,43.5,31.3,37.8,31.3z"/>
		<path class="st5" d="M93.3,81.9c-14.6,0-25.1-9.8-25.1-25.5c0-15.7,10.3-25.5,25.1-25.5c14.5,0,24.7,9.6,24.7,24.7
			c0,1.4-0.1,2.9-0.3,4.4H83.3c0.5,6.5,4.5,9.5,9.4,9.5c4.3,0,6.7-2.1,7.9-4.8h16.2C114.4,74.4,105.6,81.9,93.3,81.9z M83.4,51.5h19
			c0-5.4-4.3-8.5-9.3-8.5C88.1,43,84.3,46,83.4,51.5z"/>
		<path class="st5" d="M156.5,30.8c12.2,0,21.9,9.8,21.9,25.4c0,15.7-9.7,25.6-21.9,25.6c-7.3,0-12.5-3.5-15.3-7.7v30.6H126V31.5
			h15.2v7C144,34.2,149.2,30.8,156.5,30.8z M152,44.1c-5.7,0-10.9,4.4-10.9,12.3s5.2,12.3,10.9,12.3c5.8,0,10.9-4.4,10.9-12.4
			C162.9,48.3,157.8,44.1,152,44.1z"/>
		<path class="st5" d="M235.4,81.2h-15.2v-6.8c-3,4.3-8.4,7.3-15,7.3c-11.5,0-19.2-7.9-19.2-21.2v-29h15.1v27
			c0,6.8,3.8,10.5,9.5,10.5c5.9,0,9.6-3.7,9.6-10.5v-27h15.2V81.2z"/>
		<path class="st5" d="M261.6,81.2h-15.2V31.5h15.2v8.3c3.5-5.2,8.9-8.8,15.6-8.8v16.1H273c-7.2,0-11.4,2.5-11.4,11V81.2z"/>
		<path class="st5" d="M315,30.8c12.2,0,21.9,9.8,21.9,25.4c0,15.7-9.7,25.6-21.9,25.6c-7.3,0-12.5-3.5-15.3-7.7v30.6h-15.2V31.5
			h15.2v7C302.4,34.2,307.7,30.8,315,30.8z M310.4,44.1c-5.7,0-10.9,4.4-10.9,12.3s5.2,12.3,10.9,12.3c5.8,0,10.9-4.4,10.9-12.4
			C321.4,48.3,316.2,44.1,310.4,44.1z"/>
		<path class="st5" d="M367.5,81.9c-14.6,0-25.6-9.8-25.6-25.5c0-15.7,11.3-25.5,25.8-25.5c14.6,0,25.8,9.8,25.8,25.5
			C393.4,72.1,382.1,81.9,367.5,81.9z M367.5,68.7c5.4,0,10.5-4,10.5-12.4c0-8.5-5-12.4-10.3-12.4c-5.5,0-10.3,3.9-10.3,12.4
			C357.3,64.7,361.9,68.7,367.5,68.7z"/>
		<path class="st5" d="M421.7,81.9c-13.3,0-22.2-7.4-22.9-17h15c0.4,3.5,3.5,5.8,7.7,5.8c3.9,0,6-1.8,6-4c0-8-27-2.2-27-20.5
			c0-8.5,7.2-15.4,20.2-15.4c12.8,0,19.9,7.1,20.9,16.9h-14.1c-0.4-3.4-3-5.6-7.3-5.6c-3.6,0-5.5,1.4-5.5,3.8
			c0,7.9,26.9,2.3,27.1,20.8C441.8,75.4,434.2,81.9,421.7,81.9z"/>
		<path class="st5" d="M453.6,44.1h-6.1V31.5h6.1V19.4h15.2v12.1h10v12.6h-10v19.9c0,2.9,1.2,4.2,4.6,4.2h5.4v12.9h-7.7
			c-10.3,0-17.5-4.4-17.5-17.3V44.1z"/>
	</g>
	<g>
		<linearGradient id="SVGID_1_" gradientUnits="userSpaceOnUse" x1="13.1838" y1="61.7563" x2="478.8528" y2="61.7563">
			<stop  offset="0" style="stop-color:#9B5DE5"/>
			<stop  offset="1" style="stop-color:#00F5D4"/>
		</linearGradient>
		<path class="st0" d="M38.7,18.7c15.3,0,23,8.8,23,19.7c0,7.8-4.3,15.2-13.9,18.1l14.4,24.7H45L32,57.6h-3.6v23.6H13.2V18.7H38.7z
			 M37.8,31.3h-9.4v15.5h9.4c5.7,0,8.4-2.9,8.4-7.8C46.2,34.4,43.5,31.3,37.8,31.3z"/>
		
			<linearGradient id="SVGID_00000054966376004828842330000018084124840397259927_" gradientUnits="userSpaceOnUse" x1="13.1838" y1="61.7563" x2="478.8528" y2="61.7563">
			<stop  offset="0" style="stop-color:#9B5DE5"/>
			<stop  offset="1" style="stop-color:#00F5D4"/>
		</linearGradient>
		<path style="fill:url(#SVGID_00000054966376004828842330000018084124840397259927_);" d="M93.3,81.9c-14.6,0-25.1-9.8-25.1-25.5
			c0-15.7,10.3-25.5,25.1-25.5c14.5,0,24.7,9.6,24.7,24.7c0,1.4-0.1,2.9-0.3,4.4H83.3c0.5,6.5,4.5,9.5,9.4,9.5
			c4.3,0,6.7-2.1,7.9-4.8h16.2C114.4,74.4,105.6,81.9,93.3,81.9z M83.4,51.5h19c0-5.4-4.3-8.5-9.3-8.5C88.1,43,84.3,46,83.4,51.5z"
			/>
		
			<linearGradient id="SVGID_00000001647324448922553600000015743477418595755924_" gradientUnits="userSpaceOnUse" x1="13.1838" y1="61.7563" x2="478.8528" y2="61.7563">
			<stop  offset="0" style="stop-color:#9B5DE5"/>
			<stop  offset="1" style="stop-color:#00F5D4"/>
		</linearGradient>
		<path style="fill:url(#SVGID_00000001647324448922553600000015743477418595755924_);" d="M156.5,30.8c12.2,0,21.9,9.8,21.9,25.4
			c0,15.7-9.7,25.6-21.9,25.6c-7.3,0-12.5-3.5-15.3-7.7v30.6H126V31.5h15.2v7C144,34.2,149.2,30.8,156.5,30.8z M152,44.1
			c-5.7,0-10.9,4.4-10.9,12.3s5.2,12.3,10.9,12.3c5.8,0,10.9-4.4,10.9-12.4C162.9,48.3,157.8,44.1,152,44.1z"/>
		
			<linearGradient id="SVGID_00000089552839493810443630000003441420381507108488_" gradientUnits="userSpaceOnUse" x1="13.1838" y1="61.7563" x2="478.8528" y2="61.7563">
			<stop  offset="0" style="stop-color:#9B5DE5"/>
			<stop  offset="1" style="stop-color:#00F5D4"/>
		</linearGradient>
		<path style="fill:url(#SVGID_00000089552839493810443630000003441420381507108488_);" d="M235.4,81.2h-15.2v-6.8
			c-3,4.3-8.4,7.3-15,7.3c-11.5,0-19.2-7.9-19.2-21.2v-29h15.1v27c0,6.8,3.8,10.5,9.5,10.5c5.9,0,9.6-3.7,9.6-10.5v-27h15.2V81.2z"
			/>
		
			<linearGradient id="SVGID_00000015346779878903237840000009518513803784593584_" gradientUnits="userSpaceOnUse" x1="13.1838" y1="61.7563" x2="478.8528" y2="61.7563">
			<stop  offset="0" style="stop-color:#9B5DE5"/>
			<stop  offset="1" style="stop-color:#00F5D4"/>
		</linearGradient>
		<path style="fill:url(#SVGID_00000015346779878903237840000009518513803784593584_);" d="M261.6,81.2h-15.2V31.5h15.2v8.3
			c3.5-5.2,8.9-8.8,15.6-8.8v16.1H273c-7.2,0-11.4,2.5-11.4,11V81.2z"/>
		
			<linearGradient id="SVGID_00000182510147819094623450000001358759403828103335_" gradientUnits="userSpaceOnUse" x1="13.1838" y1="61.7563" x2="478.8528" y2="61.7563">
			<stop  offset="0" style="stop-color:#9B5DE5"/>
			<stop  offset="1" style="stop-color:#00F5D4"/>
		</linearGradient>
		<path style="fill:url(#SVGID_00000182510147819094623450000001358759403828103335_);" d="M315,30.8c12.2,0,21.9,9.8,21.9,25.4
			c0,15.7-9.7,25.6-21.9,25.6c-7.3,0-12.5-3.5-15.3-7.7v30.6h-15.2V31.5h15.2v7C302.4,34.2,307.7,30.8,315,30.8z M310.4,44.1
			c-5.7,0-10.9,4.4-10.9,12.3s5.2,12.3,10.9,12.3c5.8,0,10.9-4.4,10.9-12.4C321.4,48.3,316.2,44.1,310.4,44.1z"/>
		
			<linearGradient id="SVGID_00000085969379708251297080000009912470447984981934_" gradientUnits="userSpaceOnUse" x1="13.1838" y1="61.7563" x2="478.8528" y2="61.7563">
			<stop  offset="0" style="stop-color:#9B5DE5"/>
			<stop  offset="1" style="stop-color:#00F5D4"/>
		</linearGradient>
		<path style="fill:url(#SVGID_00000085969379708251297080000009912470447984981934_);" d="M367.5,81.9c-14.6,0-25.6-9.8-25.6-25.5
			c0-15.7,11.3-25.5,25.8-25.5c14.6,0,25.8,9.8,25.8,25.5C393.4,72.1,382.1,81.9,367.5,81.9z M367.5,68.7c5.4,0,10.5-4,10.5-12.4
			c0-8.5-5-12.4-10.3-12.4c-5.5,0-10.3,3.9-10.3,12.4C357.3,64.7,361.9,68.7,367.5,68.7z"/>
		
			<linearGradient id="SVGID_00000170968354951275367600000011378938963886855357_" gradientUnits="userSpaceOnUse" x1="13.1838" y1="61.7563" x2="478.8528" y2="61.7563">
			<stop  offset="0" style="stop-color:#9B5DE5"/>
			<stop  offset="1" style="stop-color:#00F5D4"/>
		</linearGradient>
		<path style="fill:url(#SVGID_00000170968354951275367600000011378938963886855357_);" d="M421.7,81.9c-13.3,0-22.2-7.4-22.9-17h15
			c0.4,3.5,3.5,5.8,7.7,5.8c3.9,0,6-1.8,6-4c0-8-27-2.2-27-20.5c0-8.5,7.2-15.4,20.2-15.4c12.8,0,19.9,7.1,20.9,16.9h-14.1
			c-0.4-3.4-3-5.6-7.3-5.6c-3.6,0-5.5,1.4-5.5,3.8c0,7.9,26.9,2.3,27.1,20.8C441.8,75.4,434.2,81.9,421.7,81.9z"/>
		
			<linearGradient id="SVGID_00000127737559350940332800000018277938114312574603_" gradientUnits="userSpaceOnUse" x1="13.1838" y1="61.7563" x2="478.8528" y2="61.7563">
			<stop  offset="0" style="stop-color:#9B5DE5"/>
			<stop  offset="1" style="stop-color:#00F5D4"/>
		</linearGradient>
		<path style="fill:url(#SVGID_00000127737559350940332800000018277938114312574603_);" d="M453.6,44.1h-6.1V31.5h6.1V19.4h15.2
			v12.1h10v12.6h-10v19.9c0,2.9,1.2,4.2,4.6,4.2h5.4v12.9h-7.7c-10.3,0-17.5-4.4-17.5-17.3V44.1z"/>
	</g>
	<g>
		
			<linearGradient id="SVGID_00000107556757728305750060000018308653549728562567_" gradientUnits="userSpaceOnUse" x1="13.1838" y1="61.7563" x2="478.8528" y2="61.7563">
			<stop  offset="0" style="stop-color:#9B5DE5"/>
			<stop  offset="1" style="stop-color:#00F5D4"/>
		</linearGradient>
		
			<path style="fill:none;stroke:url(#SVGID_00000107556757728305750060000018308653549728562567_);stroke-width:0.4891;stroke-miterlimit:10;" d="
			M38.7,18.7c15.3,0,23,8.8,23,19.7c0,7.8-4.3,15.2-13.9,18.1l14.4,24.7H45L32,57.6h-3.6v23.6H13.2V18.7H38.7z M37.8,31.3h-9.4v15.5
			h9.4c5.7,0,8.4-2.9,8.4-7.8C46.2,34.4,43.5,31.3,37.8,31.3z"/>
		
			<linearGradient id="SVGID_00000098915995504282304270000000205807965384778907_" gradientUnits="userSpaceOnUse" x1="13.1838" y1="61.7563" x2="478.8528" y2="61.7563">
			<stop  offset="0" style="stop-color:#9B5DE5"/>
			<stop  offset="1" style="stop-color:#00F5D4"/>
		</linearGradient>
		
			<path style="fill:none;stroke:url(#SVGID_00000098915995504282304270000000205807965384778907_);stroke-width:0.4891;stroke-miterlimit:10;" d="
			M93.3,81.9c-14.6,0-25.1-9.8-25.1-25.5c0-15.7,10.3-25.5,25.1-25.5c14.5,0,24.7,9.6,24.7,24.7c0,1.4-0.1,2.9-0.3,4.4H83.3
			c0.5,6.5,4.5,9.5,9.4,9.5c4.3,0,6.7-2.1,7.9-4.8h16.2C114.4,74.4,105.6,81.9,93.3,81.9z M83.4,51.5h19c0-5.4-4.3-8.5-9.3-8.5
			C88.1,43,84.3,46,83.4,51.5z"/>
		
			<linearGradient id="SVGID_00000081607486229955047570000002273642540547679365_" gradientUnits="userSpaceOnUse" x1="13.1838" y1="61.7563" x2="478.8528" y2="61.7563">
			<stop  offset="0" style="stop-color:#9B5DE5"/>
			<stop  offset="1" style="stop-color:#00F5D4"/>
		</linearGradient>
		
			<path style="fill:none;stroke:url(#SVGID_00000081607486229955047570000002273642540547679365_);stroke-width:0.4891;stroke-miterlimit:10;" d="
			M156.5,30.8c12.2,0,21.9,9.8,21.9,25.4c0,15.7-9.7,25.6-21.9,25.6c-7.3,0-12.5-3.5-15.3-7.7v30.6H126V31.5h15.2v7
			C144,34.2,149.2,30.8,156.5,30.8z M152,44.1c-5.7,0-10.9,4.4-10.9,12.3s5.2,12.3,10.9,12.3c5.8,0,10.9-4.4,10.9-12.4
			C162.9,48.3,157.8,44.1,152,44.1z"/>
		
			<linearGradient id="SVGID_00000062880834615116189240000006569681231327383982_" gradientUnits="userSpaceOnUse" x1="13.1838" y1="61.7563" x2="478.8528" y2="61.7563">
			<stop  offset="0" style="stop-color:#9B5DE5"/>
			<stop  offset="1" style="stop-color:#00F5D4"/>
		</linearGradient>
		
			<path style="fill:none;stroke:url(#SVGID_00000062880834615116189240000006569681231327383982_);stroke-width:0.4891;stroke-miterlimit:10;" d="
			M235.4,81.2h-15.2v-6.8c-3,4.3-8.4,7.3-15,7.3c-11.5,0-19.2-7.9-19.2-21.2v-29h15.1v27c0,6.8,3.8,10.5,9.5,10.5
			c5.9,0,9.6-3.7,9.6-10.5v-27h15.2V81.2z"/>
		
			<linearGradient id="SVGID_00000088828739997276853360000003605345119008884152_" gradientUnits="userSpaceOnUse" x1="13.1838" y1="61.7563" x2="478.8528" y2="61.7563">
			<stop  offset="0" style="stop-color:#9B5DE5"/>
			<stop  offset="1" style="stop-color:#00F5D4"/>
		</linearGradient>
		
			<path style="fill:none;stroke:url(#SVGID_00000088828739997276853360000003605345119008884152_);stroke-width:0.4891;stroke-miterlimit:10;" d="
			M261.6,81.2h-15.2V31.5h15.2v8.3c3.5-5.2,8.9-8.8,15.6-8.8v16.1H273c-7.2,0-11.4,2.5-11.4,11V81.2z"/>
		
			<linearGradient id="SVGID_00000103222554157134381910000015982305544141828010_" gradientUnits="userSpaceOnUse" x1="13.1838" y1="61.7563" x2="478.8528" y2="61.7563">
			<stop  offset="0" style="stop-color:#9B5DE5"/>
			<stop  offset="1" style="stop-color:#00F5D4"/>
		</linearGradient>
		
			<path style="fill:none;stroke:url(#SVGID_00000103222554157134381910000015982305544141828010_);stroke-width:0.4891;stroke-miterlimit:10;" d="
			M315,30.8c12.2,0,21.9,9.8,21.9,25.4c0,15.7-9.7,25.6-21.9,25.6c-7.3,0-12.5-3.5-15.3-7.7v30.6h-15.2V31.5h15.2v7
			C302.4,34.2,307.7,30.8,315,30.8z M310.4,44.1c-5.7,0-10.9,4.4-10.9,12.3s5.2,12.3,10.9,12.3c5.8,0,10.9-4.4,10.9-12.4
			C321.4,48.3,316.2,44.1,310.4,44.1z"/>
		
			<linearGradient id="SVGID_00000139978864379412467610000016440501988643850381_" gradientUnits="userSpaceOnUse" x1="13.1838" y1="61.7563" x2="478.8528" y2="61.7563">
			<stop  offset="0" style="stop-color:#9B5DE5"/>
			<stop  offset="1" style="stop-color:#00F5D4"/>
		</linearGradient>
		
			<path style="fill:none;stroke:url(#SVGID_00000139978864379412467610000016440501988643850381_);stroke-width:0.4891;stroke-miterlimit:10;" d="
			M367.5,81.9c-14.6,0-25.6-9.8-25.6-25.5c0-15.7,11.3-25.5,25.8-25.5c14.6,0,25.8,9.8,25.8,25.5C393.4,72.1,382.1,81.9,367.5,81.9z
			 M367.5,68.7c5.4,0,10.5-4,10.5-12.4c0-8.5-5-12.4-10.3-12.4c-5.5,0-10.3,3.9-10.3,12.4C357.3,64.7,361.9,68.7,367.5,68.7z"/>
		
			<linearGradient id="SVGID_00000003071131005528012860000015815092083509152146_" gradientUnits="userSpaceOnUse" x1="13.1838" y1="61.7563" x2="478.8528" y2="61.7563">
			<stop  offset="0" style="stop-color:#9B5DE5"/>
			<stop  offset="1" style="stop-color:#00F5D4"/>
		</linearGradient>
		
			<path style="fill:none;stroke:url(#SVGID_00000003071131005528012860000015815092083509152146_);stroke-width:0.4891;stroke-miterlimit:10;" d="
			M421.7,81.9c-13.3,0-22.2-7.4-22.9-17h15c0.4,3.5,3.5,5.8,7.7,5.8c3.9,0,6-1.8,6-4c0-8-27-2.2-27-20.5c0-8.5,7.2-15.4,20.2-15.4
			c12.8,0,19.9,7.1,20.9,16.9h-14.1c-0.4-3.4-3-5.6-7.3-5.6c-3.6,0-5.5,1.4-5.5,3.8c0,7.9,26.9,2.3,27.1,20.8
			C441.8,75.4,434.2,81.9,421.7,81.9z"/>
		
			<linearGradient id="SVGID_00000069375113637501767480000012930407947236663467_" gradientUnits="userSpaceOnUse" x1="13.1838" y1="61.7563" x2="478.8528" y2="61.7563">
			<stop  offset="0" style="stop-color:#9B5DE5"/>
			<stop  offset="1" style="stop-color:#00F5D4"/>
		</linearGradient>
		
			<path style="fill:none;stroke:url(#SVGID_00000069375113637501767480000012930407947236663467_);stroke-width:0.4891;stroke-miterlimit:10;" d="
			M453.6,44.1h-6.1V31.5h6.1V19.4h15.2v12.1h10v12.6h-10v19.9c0,2.9,1.2,4.2,4.6,4.2h5.4v12.9h-7.7c-10.3,0-17.5-4.4-17.5-17.3V44.1
			z"/>
	</g>
</g>
</svg>
